# xmcd
#
# Track frame offsets:
#	150
#	12159
#	30869
#	44532
#	56712
#	74852
#	92398
#	108365
#	127416
#	168074
#	189775
#	210654
#	230721
#
# Disc length: 3235 seconds
#
# Revision: 1
# Processed by: cddbd v1.4PL0 Copyright (c) Steve Scherf et al.
# Submitted via: EasyCDDAExtractor 6.2.0.3
#
DISCID=ae0ca10d
DTITLE=Martinho Da Vila - Amigos
DYEAR=2002
DGENRE=Pagode
TTITLE0=Mulata Faceira
TTITLE1=Partido Alto Da Antiga
TTITLE2=São José De Madureira
TTITLE3=Muadiakime
TTITLE4=Bom Dia
TTITLE5=Bom Dia, Minha Flor
TTITLE6=Clube Do Samba
TTITLE7=Retrós e Linhas
TTITLE8=Zé Ferreira, Trepa No Coqueiro, Poeira Do Caminho, Chora Viola Chora
TTITLE9=Canta, Canta Minha Gente, Casa De Bamba, O Pequeno Burguês
TTITLE10=Danadinho, Danado
TTITLE11=Roda De Samba-De-Roda
TTITLE12=Muita Luz
EXTD=
EXTT0=
EXTT1=
EXTT2=
EXTT3=
EXTT4=
EXTT5=
EXTT6=
EXTT7=
EXTT8=
EXTT9=
EXTT10=
EXTT11=
EXTT12=
PLAYORDER=
